<?xml version="1.0" encoding="utf-8"?>
<!-- Uploaded to: SVG Repo, www.svgrepo.com, Generator: SVG Repo Mixer Tools -->
<svg width="800px" height="800px" viewBox="0 -9.17 235.09 235.09" xmlns="http://www.w3.org/2000/svg">

<defs>

<style>.cls-1{fill:#ffffff;}</style>

</defs>

<g id="Layer_2" data-name="Layer 2">

<g id="Layer_1-2" data-name="Layer 1">

<path d="M159.86,166.61c2.74,9.37,5.14,17.58,7.64,26.11,2.75.5,5.23.87,7.68,1.42,5.9,1.33,7.7,3.83,7.06,9.7-.18,1.71-.49,3.4-.73,5.1-.64,4.48-2.52,6.74-6.83,7.35a48.07,48.07,0,0,1-9.44.36c-15.74-.94-31.48-.36-47.22-.05-4,.07-8-.43-12-.41-6.57,0-13.15.23-19.72.37a40,40,0,0,1-6,.09c-6.47-.89-8.14-2.78-8.67-9.4-.2-2.55-.33-5.1-.51-7.87,3.66-3.17,8.8-2.64,12.73-5.49.74-8,1.5-16.22,2.31-24.91A29.92,29.92,0,0,0,81,167.73c-6.57-.38-13.15-.6-19.72-.85-10.88-.4-21.77-.62-32.63-1.25a85.51,85.51,0,0,1-13.55-2.16c-4.75-1.06-8.4-3.48-9.19-8.89-.7-4.81-2.08-9.54-2.46-14.36-2.35-30-3.11-60-3.14-90.13C.32,38.06.14,26,0,14c0-.86,0-1.72,0-2.58C.15,7.15,1.38,5.76,5.46,5.23c.28,0,.57-.07.85-.09C24,4.05,41.77,3.3,59.44,1.78,78.3.16,97.19,0,116.07,0c13.73,0,27.46,1.08,41.2,1.57q9,.31,18,.18c9.22-.16,18.28,1.24,27.36,2.4,7.66,1,15.28,2.25,22.94,3.19A6,6,0,0,1,231.06,12a4.11,4.11,0,0,1,.26.82c.92,8.81,2.17,17.61,2.68,26.45.67,11.68,1,23.39,1.05,35.08.11,22.92,0,45.83-.17,68.74a34.22,34.22,0,0,1-1,6.79c-1.24,5.84-5.36,9.44-11.27,10.07-15.08,1.61-30.15,3.26-45.23,4.83-4,.42-8,.57-12,.93C163.78,165.85,162.18,166.22,159.86,166.61ZM222,18c-2.84-.28-4.56-.32-6.22-.63A264,264,0,0,0,175,12.59c-4.86-.16-9.73.07-14.57-.17-8.57-.43-17.12-1.45-25.69-1.57-18.32-.26-36.64-.1-55-.1-.57,0-1.13.12-1.71.15q-30,1.68-60,3.35c-2.49.14-5,.39-7.39.59a15.74,15.74,0,0,0-.75,3c.07,11.45.14,22.89.31,34.33.19,12.88.52,25.76.72,38.63.27,17.74.43,35.47,3.69,53,.37,2,.37,4,.68,6,.26,1.64.71,3.24,1.18,5.29,4.15.47,8.09,1.23,12,1.32,21.18.51,42.36.86,63.54,1.23,6.28.11,12.59.45,18.85.1,25.15-1.44,50.3-2.83,75.41-4.8,12.2-1,24.3-3.17,36.94-4.88.55-6.48,1.32-12.68,1.58-18.9,1.4-32.93-.67-65.82-1.41-98.73C223.35,26.45,222.54,22.51,222,18ZM94.09,169.19c-2.51,12.48-2.85,19.55-1.36,24.41,7.22,0,14.35,0,21.47,0s14.28-.05,21.41-.39,14.12.74,21.54-1A106.42,106.42,0,0,0,150.28,167c-1.72,0-3.13,0-4.53,0-15.7.17-31.35,2.59-47.1,1C97.12,167.86,95.49,168.8,94.09,169.19ZM80.92,205.28c0,1.18-.1,1.66,0,1.72.71.37,1.53,1,2.22.9a99.43,99.43,0,0,1,24,.07,60,60,0,0,0,7.71.08q20.55-.36,41.12-.78,7.26-.17,14.51-.64c.43,0,.93-1.23,1.08-1.95.08-.36-.49-1-.91-1.27A3.41,3.41,0,0,0,169,203c-9.37-.37-18.72-1.08-28.14-.64-12,.56-24,.15-36,.57C96.88,203.21,88.85,203.09,80.92,205.28Z"/>

<path class="cls-1" d="M222,18c.54,4.53,1.35,8.47,1.44,12.43.74,32.91,2.81,65.8,1.41,98.73-.26,6.22-1,12.42-1.58,18.9-12.64,1.71-24.74,3.92-36.94,4.88-25.11,2-50.26,3.36-75.41,4.8-6.26.35-12.57,0-18.85-.1-21.18-.37-42.36-.72-63.54-1.23-4-.09-7.89-.85-12-1.32-.47-2-.92-3.65-1.18-5.29-.31-2-.31-4-.68-6-3.26-17.53-3.42-35.26-3.69-53-.2-12.87-.53-25.75-.72-38.63-.17-11.44-.24-22.88-.31-34.33a15.74,15.74,0,0,1,.75-3c2.4-.2,4.9-.45,7.39-.59q30-1.7,60-3.35c.58,0,1.14-.15,1.71-.15,18.33,0,36.65-.16,55,.1,8.57.12,17.12,1.14,25.69,1.57,4.84.24,9.71,0,14.57.17a264,264,0,0,1,40.8,4.76C217.44,17.66,219.16,17.7,222,18Zm-9,126c0-3.49-.07-6.31,0-9.12.64-21.74.68-43.53,2.24-65.21.91-12.7-1.29-25.08-1.32-37.63,0-3.15-1.86-5-5.05-6.09A51.4,51.4,0,0,0,186,23.71a100.32,100.32,0,0,1-18.81.42c-4.29-.26-8.57-.69-12.86-.73q-40.37-.41-80.74-.63c-4.3,0-8.59.07-12.88.23-11.72.45-23.44.89-35.14,1.52-1.85.1-3.65,1.17-5.7,1.87-.2,4.38-.55,8.36-.52,12.33.09,10.3.37,20.6.52,30.9.09,6.28,0,12.56.14,18.84.15,7.44.3,14.88.68,22.3C21,117.9,22,125,22.11,132.16c.2,10,2.59,11.28,11,15.17,1.73.8,3.91.75,5.89.85,5.14.24,10.34,0,15.44.58,12,1.44,24,1.43,36,1.09,14.3-.41,28.6-1.12,42.9-1.34,20.9-.34,41.8-.37,62.69-.51A34.79,34.79,0,0,0,213,144Z"/>

<path class="cls-1" d="M94.09,169.19c1.4-.39,3-1.33,4.56-1.18,15.75,1.58,31.4-.84,47.1-1,1.4,0,2.81,0,4.53,0a106.42,106.42,0,0,1,6.87,25.19c-7.42,1.75-14.53.68-21.54,1s-14.27.34-21.41.39-14.25,0-21.47,0C91.24,188.74,91.58,181.67,94.09,169.19Z"/>

<path class="cls-1" d="M80.92,205.28c7.93-2.19,16-2.07,23.9-2.34,12-.42,24,0,36-.57,9.42-.44,18.77.27,28.14.64a3.41,3.41,0,0,1,1.65.4c.42.27,1,.91.91,1.27-.15.72-.65,1.92-1.08,1.95q-7.24.48-14.51.64-20.56.45-41.12.78a60,60,0,0,1-7.71-.08,99.43,99.43,0,0,0-24-.07c-.69.09-1.51-.53-2.22-.9C80.82,206.94,80.92,206.46,80.92,205.28Z"/>

<path d="M213,144a34.79,34.79,0,0,1-16.87,4c-20.89.14-41.79.17-62.69.51-14.3.22-28.6.93-42.9,1.34-12,.34-24,.35-36-1.09-5.1-.61-10.3-.34-15.44-.58-2-.1-4.16-.05-5.89-.85-8.45-3.89-10.84-5.15-11-15.17C22,125,21,117.9,20.66,110.76c-.38-7.42-.53-14.86-.68-22.3-.12-6.28-.05-12.56-.14-18.84-.15-10.3-.43-20.6-.52-30.9,0-4,.32-7.95.52-12.33,2.05-.7,3.85-1.77,5.7-1.87C37.24,23.89,49,23.45,60.68,23c4.29-.16,8.58-.26,12.88-.23q40.36.26,80.74.63c4.29,0,8.57.47,12.86.73A100.32,100.32,0,0,0,186,23.71a51.4,51.4,0,0,1,22.88,2.21C212,27,213.9,28.86,213.9,32c0,12.55,2.23,24.93,1.32,37.63-1.56,21.68-1.6,43.47-2.24,65.21C212.89,137.66,213,140.48,213,144ZM205.74,40.69c-18.58-5.32-26.18-6.53-38.34-6.38-3.15,0-6.3-.05-9.44-.08q-27.06-.25-54.11-.5c-2.86,0-5.72-.18-8.58-.24q-24.9-.59-49.8-1.12c-3.43-.07-6.88.06-10.3.32a49.19,49.19,0,0,0-6,1.18c-.07,7.28-.3,14.12-.16,21,.3,14.6.79,29.19,1.2,43.78.26,9.15.45,18.31.77,27.47a34.22,34.22,0,0,0,2,11.4,21.05,21.05,0,0,0,3,.71q21.87,1.33,43.73,2.61c1.13.07,2.28,0,3.43,0,16.57-.67,33.14-1.56,49.72-2,20.9-.51,41.8-.61,62.69-.94a66.51,66.51,0,0,0,6.8-.77C204.53,104.7,206.89,72.84,205.74,40.69Z"/>

<path class="cls-1" d="M205.74,40.69c1.15,32.15-1.21,64-3.36,96.39a66.51,66.51,0,0,1-6.8.77c-20.89.33-41.79.43-62.69.94-16.58.4-33.15,1.29-49.72,2-1.15,0-2.3.11-3.43,0Q57.87,139.51,36,138.18a21.05,21.05,0,0,1-3-.71,34.22,34.22,0,0,1-2-11.4c-.32-9.16-.51-18.32-.77-27.47-.41-14.59-.9-29.18-1.2-43.78-.14-6.83.09-13.67.16-21a49.19,49.19,0,0,1,6-1.18c3.42-.26,6.87-.39,10.3-.32q24.9.5,49.8,1.12c2.86.06,5.72.21,8.58.24q27,.27,54.11.5c3.14,0,6.29.12,9.44.08C179.56,34.16,187.16,35.37,205.74,40.69Z"/>

</g>

</g>

</svg>